<svg width="156" height="57" viewBox="0 0 156 57" fill="none" xmlns="http://www.w3.org/2000/svg">
<path d="M1.92 26.5V9.7H8.568L12.624 18.748C12.992 19.82 13.176 20.524 13.176 20.86V21.076H13.56V20.86C13.56 20.524 13.744 19.82 14.112 18.748L18.168 9.7H24.84V26.5H20.712V16.996C20.712 15.924 20.752 15.044 20.832 14.356C20.928 13.668 21.072 12.964 21.264 12.244H20.856L15.744 23.62H10.992L5.88 12.244H5.472C5.664 12.964 5.8 13.668 5.88 14.356C5.976 15.044 6.024 15.924 6.024 16.996V26.5H1.92ZM44.4302 20.452C44.4302 20.788 44.4062 21.14 44.3582 21.508H31.3502C31.6062 22.308 32.1342 22.94 32.9342 23.404C33.7342 23.852 34.7902 24.076 36.1022 24.076C37.3502 24.076 38.3022 23.932 38.9582 23.644C39.6142 23.34 40.1342 22.972 40.5182 22.54H44.1662C43.9262 23.212 43.4942 23.876 42.8702 24.532C42.2462 25.172 41.3582 25.716 40.2062 26.164C39.0702 26.596 37.6782 26.812 36.0302 26.812C34.2702 26.812 32.7582 26.532 31.4942 25.972C30.2462 25.396 29.3022 24.628 28.6622 23.668C28.0222 22.692 27.7022 21.604 27.7022 20.404C27.7022 19.204 28.0222 18.124 28.6622 17.164C29.3182 16.188 30.2702 15.42 31.5182 14.86C32.7822 14.284 34.3022 13.996 36.0782 13.996C37.8382 13.996 39.3502 14.284 40.6142 14.86C41.8782 15.42 42.8302 16.188 43.4702 17.164C44.1102 18.14 44.4302 19.236 44.4302 20.452ZM36.0782 16.756C34.7502 16.756 33.6862 16.988 32.8862 17.452C32.0862 17.916 31.5662 18.556 31.3262 19.372H40.8062C40.5662 18.556 40.0462 17.916 39.2462 17.452C38.4622 16.988 37.4062 16.756 36.0782 16.756ZM47.0064 26.5V14.308H50.7984L50.2944 17.356H50.7024C51.3904 15.116 52.9664 13.996 55.4304 13.996C56.7744 13.996 57.8544 14.324 58.6704 14.98C59.4864 15.636 59.9824 16.468 60.1584 17.476H60.4944C61.1824 15.156 62.7984 13.996 65.3424 13.996C66.9264 13.996 68.1824 14.492 69.1104 15.484C70.0384 16.46 70.5024 17.828 70.5024 19.588V26.5H66.7104V20.452C66.7104 19.412 66.4384 18.612 65.8944 18.052C65.3504 17.476 64.6144 17.188 63.6864 17.188C62.7424 17.188 61.9984 17.476 61.4544 18.052C60.9104 18.628 60.6384 19.428 60.6384 20.452V26.5H56.8704V20.452C56.8704 19.428 56.5984 18.628 56.0544 18.052C55.5104 17.476 54.7664 17.188 53.8224 17.188C52.8944 17.188 52.1584 17.476 51.6144 18.052C51.0704 18.612 50.7984 19.412 50.7984 20.452V26.5H47.0064ZM81.48 26.812C79.656 26.812 78.104 26.532 76.824 25.972C75.544 25.396 74.576 24.628 73.92 23.668C73.28 22.692 72.96 21.604 72.96 20.404C72.96 19.204 73.28 18.124 73.92 17.164C74.576 16.188 75.544 15.42 76.824 14.86C78.104 14.284 79.656 13.996 81.48 13.996C83.288 13.996 84.832 14.284 86.112 14.86C87.392 15.42 88.352 16.188 88.992 17.164C89.648 18.124 89.976 19.204 89.976 20.404C89.976 21.604 89.648 22.692 88.992 23.668C88.352 24.628 87.392 25.396 86.112 25.972C84.832 26.532 83.288 26.812 81.48 26.812ZM81.48 23.836C83 23.836 84.168 23.516 84.984 22.876C85.8 22.22 86.208 21.396 86.208 20.404C86.208 19.428 85.8 18.62 84.984 17.98C84.168 17.324 83 16.996 81.48 16.996C79.96 16.996 78.784 17.324 77.952 17.98C77.136 18.62 76.728 19.428 76.728 20.404C76.728 21.396 77.136 22.22 77.952 22.876C78.784 23.516 79.96 23.836 81.48 23.836ZM92.5455 26.5V14.308H96.3375L95.8095 17.668H96.2175C96.5535 16.5 97.1695 15.596 98.0655 14.956C98.9615 14.316 100.09 13.996 101.45 13.996C103.37 13.996 104.834 14.54 105.842 15.628C106.866 16.7 107.378 18.284 107.378 20.38V20.86H103.538V20.692C103.538 19.62 103.218 18.788 102.578 18.196C101.954 17.588 101.066 17.284 99.9135 17.284C98.7775 17.284 97.8975 17.612 97.2735 18.268C96.6495 18.908 96.3375 19.852 96.3375 21.1V26.5H92.5455ZM116.058 23.38H119.85V26.5H108.018V23.38H112.434V18.748C112.434 18.22 112.322 17.852 112.098 17.644C111.89 17.42 111.522 17.308 110.994 17.308C110.53 17.308 110.058 17.396 109.578 17.572V14.452C110.33 14.148 111.218 13.996 112.242 13.996C113.634 13.996 114.618 14.26 115.194 14.788C115.77 15.316 116.058 16.172 116.058 17.356V23.38ZM113.73 12.46C113.042 12.46 112.498 12.276 112.098 11.908C111.698 11.54 111.498 11.076 111.498 10.516C111.498 9.956 111.698 9.492 112.098 9.124C112.498 8.756 113.042 8.572 113.73 8.572C114.402 8.572 114.938 8.756 115.338 9.124C115.738 9.492 115.938 9.956 115.938 10.516C115.938 11.076 115.738 11.54 115.338 11.908C114.938 12.276 114.402 12.46 113.73 12.46ZM137.008 20.452C137.008 20.788 136.984 21.14 136.936 21.508H123.928C124.184 22.308 124.712 22.94 125.512 23.404C126.312 23.852 127.368 24.076 128.68 24.076C129.928 24.076 130.88 23.932 131.536 23.644C132.192 23.34 132.712 22.972 133.096 22.54H136.744C136.504 23.212 136.072 23.876 135.448 24.532C134.824 25.172 133.936 25.716 132.784 26.164C131.648 26.596 130.256 26.812 128.608 26.812C126.848 26.812 125.336 26.532 124.072 25.972C122.824 25.396 121.88 24.628 121.24 23.668C120.6 22.692 120.28 21.604 120.28 20.404C120.28 19.204 120.6 18.124 121.24 17.164C121.896 16.188 122.848 15.42 124.096 14.86C125.36 14.284 126.88 13.996 128.656 13.996C130.416 13.996 131.928 14.284 133.192 14.86C134.456 15.42 135.408 16.188 136.048 17.164C136.688 18.14 137.008 19.236 137.008 20.452ZM128.656 16.756C127.328 16.756 126.264 16.988 125.464 17.452C124.664 17.916 124.144 18.556 123.904 19.372H133.384C133.144 18.556 132.624 17.916 131.824 17.452C131.04 16.988 129.984 16.756 128.656 16.756ZM146.905 26.812C144.153 26.812 142.153 26.404 140.905 25.588C139.673 24.756 139.057 23.644 139.057 22.252V22.06H142.897V22.204C142.897 23.484 144.233 24.124 146.905 24.124C148.425 24.124 149.465 23.996 150.025 23.74C150.601 23.484 150.889 23.148 150.889 22.732C150.889 22.364 150.697 22.092 150.313 21.916C149.945 21.74 149.481 21.628 148.921 21.58C148.361 21.516 147.561 21.46 146.521 21.412C144.985 21.348 143.729 21.244 142.753 21.1C141.777 20.94 140.937 20.612 140.233 20.116C139.529 19.62 139.177 18.868 139.177 17.86C139.177 16.708 139.777 15.78 140.977 15.076C142.177 14.356 144.153 13.996 146.905 13.996C149.481 13.996 151.393 14.428 152.641 15.292C153.889 16.14 154.545 17.244 154.609 18.604H150.769C150.673 17.324 149.385 16.684 146.905 16.684C144.313 16.684 143.017 17.148 143.017 18.076C143.017 18.556 143.353 18.868 144.025 19.012C144.697 19.14 145.769 19.236 147.241 19.3C148.793 19.348 150.065 19.452 151.057 19.612C152.065 19.756 152.929 20.084 153.649 20.596C154.369 21.108 154.729 21.876 154.729 22.9C154.729 25.508 152.121 26.812 146.905 26.812Z" fill="#212429"/>
<path d="M1.92 46.5V29.7H8.568L12.624 38.748C12.992 39.82 13.176 40.524 13.176 40.86V41.076H13.56V40.86C13.56 40.524 13.744 39.82 14.112 38.748L18.168 29.7H24.84V46.5H20.712V36.996C20.712 35.924 20.752 35.044 20.832 34.356C20.928 33.668 21.072 32.964 21.264 32.244H20.856L15.744 43.62H10.992L5.88 32.244H5.472C5.664 32.964 5.8 33.668 5.88 34.356C5.976 35.044 6.024 35.924 6.024 36.996V46.5H1.92ZM33.5582 46.812C31.6222 46.812 30.1982 46.484 29.2862 45.828C28.3902 45.156 27.9422 44.252 27.9422 43.116C27.9422 41.996 28.3902 41.108 29.2862 40.452C30.1982 39.796 31.6222 39.468 33.5582 39.468C34.9502 39.468 36.1022 39.596 37.0142 39.852C37.9262 40.092 38.8302 40.452 39.7262 40.932V40.044C39.7262 39.084 39.3662 38.316 38.6462 37.74C37.9262 37.164 36.8622 36.876 35.4542 36.876C34.2222 36.876 33.2702 37.068 32.5982 37.452C31.9422 37.836 31.5262 38.316 31.3502 38.892H27.5822C27.7582 37.452 28.4942 36.276 29.7902 35.364C31.1022 34.452 33.0062 33.996 35.5022 33.996C38.1102 33.996 40.0782 34.556 41.4062 35.676C42.7502 36.78 43.4222 38.284 43.4222 40.188V42.78C43.4222 43.1 43.4942 43.332 43.6382 43.476C43.7822 43.62 43.9982 43.692 44.2862 43.692C44.5262 43.692 44.7502 43.66 44.9582 43.596V46.548C44.3822 46.724 43.8222 46.812 43.2782 46.812C42.3182 46.812 41.5822 46.596 41.0702 46.164C40.5582 45.716 40.3022 45.14 40.3022 44.436V44.34H39.8942V44.412C39.8942 44.812 39.6622 45.196 39.1982 45.564C38.7342 45.916 38.0222 46.212 37.0622 46.452C36.1182 46.692 34.9502 46.812 33.5582 46.812ZM34.9742 44.244C36.7182 44.244 38.3022 43.916 39.7262 43.26V42.588C38.9582 42.284 38.2062 42.052 37.4702 41.892C36.7502 41.732 35.9182 41.652 34.9742 41.652C33.7582 41.652 32.9182 41.764 32.4542 41.988C32.0062 42.212 31.7822 42.532 31.7822 42.948C31.7822 43.364 32.0062 43.684 32.4542 43.908C32.9022 44.132 33.7422 44.244 34.9742 44.244ZM55.0498 40.14L61.8898 46.5H56.9218L50.7778 40.476V46.5H46.9858V29.7H50.7778V39.876L56.7778 34.308H61.6498L55.0498 40.14ZM78.5083 40.452C78.5083 40.788 78.4843 41.14 78.4363 41.508H65.4283C65.6843 42.308 66.2123 42.94 67.0123 43.404C67.8123 43.852 68.8683 44.076 70.1803 44.076C71.4283 44.076 72.3803 43.932 73.0363 43.644C73.6923 43.34 74.2123 42.972 74.5963 42.54H78.2443C78.0043 43.212 77.5723 43.876 76.9483 44.532C76.3243 45.172 75.4363 45.716 74.2843 46.164C73.1483 46.596 71.7563 46.812 70.1083 46.812C68.3483 46.812 66.8363 46.532 65.5723 45.972C64.3243 45.396 63.3803 44.628 62.7403 43.668C62.1003 42.692 61.7803 41.604 61.7803 40.404C61.7803 39.204 62.1003 38.124 62.7403 37.164C63.3963 36.188 64.3483 35.42 65.5963 34.86C66.8603 34.284 68.3803 33.996 70.1563 33.996C71.9163 33.996 73.4283 34.284 74.6923 34.86C75.9563 35.42 76.9083 36.188 77.5483 37.164C78.1883 38.14 78.5083 39.236 78.5083 40.452ZM70.1563 36.756C68.8283 36.756 67.7643 36.988 66.9643 37.452C66.1643 37.916 65.6443 38.556 65.4043 39.372H74.8843C74.6443 38.556 74.1243 37.916 73.3243 37.452C72.5403 36.988 71.4843 36.756 70.1563 36.756ZM81.0846 46.5V34.308H84.8766L84.3486 37.668H84.7566C85.0926 36.5 85.7086 35.596 86.6046 34.956C87.5006 34.316 88.6286 33.996 89.9886 33.996C91.9086 33.996 93.3726 34.54 94.3806 35.628C95.4046 36.7 95.9166 38.284 95.9166 40.38V40.86H92.0766V40.692C92.0766 39.62 91.7566 38.788 91.1166 38.196C90.4926 37.588 89.6046 37.284 88.4526 37.284C87.3166 37.284 86.4366 37.612 85.8126 38.268C85.1886 38.908 84.8766 39.852 84.8766 41.1V46.5H81.0846ZM105.678 46.812C102.926 46.812 100.926 46.404 99.678 45.588C98.446 44.756 97.83 43.644 97.83 42.252V42.06H101.67V42.204C101.67 43.484 103.006 44.124 105.678 44.124C107.198 44.124 108.238 43.996 108.798 43.74C109.374 43.484 109.662 43.148 109.662 42.732C109.662 42.364 109.47 42.092 109.086 41.916C108.718 41.74 108.254 41.628 107.694 41.58C107.134 41.516 106.334 41.46 105.294 41.412C103.758 41.348 102.502 41.244 101.526 41.1C100.55 40.94 99.71 40.612 99.006 40.116C98.302 39.62 97.95 38.868 97.95 37.86C97.95 36.708 98.55 35.78 99.75 35.076C100.95 34.356 102.926 33.996 105.678 33.996C108.254 33.996 110.166 34.428 111.414 35.292C112.662 36.14 113.318 37.244 113.382 38.604H109.542C109.446 37.324 108.158 36.684 105.678 36.684C103.086 36.684 101.79 37.148 101.79 38.076C101.79 38.556 102.126 38.868 102.798 39.012C103.47 39.14 104.542 39.236 106.014 39.3C107.566 39.348 108.838 39.452 109.83 39.612C110.838 39.756 111.702 40.084 112.422 40.596C113.142 41.108 113.502 41.876 113.502 42.9C113.502 45.508 110.894 46.812 105.678 46.812Z" fill="#F6B750"/>
</svg>
