<svg width="234" height="92" viewBox="0 0 234 92" fill="none" xmlns="http://www.w3.org/2000/svg">
<path d="M2.88 40V14.8H12.852L18.936 28.372C19.488 29.98 19.764 31.036 19.764 31.54V31.864H20.34V31.54C20.34 31.036 20.616 29.98 21.168 28.372L27.252 14.8H37.26V40H31.068V25.744C31.068 24.136 31.128 22.816 31.248 21.784C31.392 20.752 31.608 19.696 31.896 18.616H31.284L23.616 35.68H16.488L8.82 18.616H8.208C8.496 19.696 8.7 20.752 8.82 21.784C8.964 22.816 9.036 24.136 9.036 25.744V40H2.88ZM66.6453 30.928C66.6453 31.432 66.6093 31.96 66.5373 32.512H47.0253C47.4093 33.712 48.2013 34.66 49.4013 35.356C50.6013 36.028 52.1853 36.364 54.1533 36.364C56.0253 36.364 57.4533 36.148 58.4373 35.716C59.4213 35.26 60.2013 34.708 60.7773 34.06H66.2493C65.8893 35.068 65.2413 36.064 64.3053 37.048C63.3693 38.008 62.0373 38.824 60.3093 39.496C58.6053 40.144 56.5173 40.468 54.0453 40.468C51.4053 40.468 49.1373 40.048 47.2413 39.208C45.3693 38.344 43.9533 37.192 42.9933 35.752C42.0333 34.288 41.5533 32.656 41.5533 30.856C41.5533 29.056 42.0333 27.436 42.9933 25.996C43.9773 24.532 45.4053 23.38 47.2773 22.54C49.1733 21.676 51.4533 21.244 54.1173 21.244C56.7573 21.244 59.0253 21.676 60.9213 22.54C62.8173 23.38 64.2453 24.532 65.2053 25.996C66.1653 27.46 66.6453 29.104 66.6453 30.928ZM54.1173 25.384C52.1253 25.384 50.5293 25.732 49.3293 26.428C48.1293 27.124 47.3493 28.084 46.9893 29.308H61.2093C60.8493 28.084 60.0693 27.124 58.8693 26.428C57.6933 25.732 56.1093 25.384 54.1173 25.384ZM70.5097 40V21.712H76.1977L75.4417 26.284H76.0537C77.0857 22.924 79.4497 21.244 83.1457 21.244C85.1617 21.244 86.7817 21.736 88.0057 22.72C89.2297 23.704 89.9737 24.952 90.2377 26.464H90.7417C91.7737 22.984 94.1977 21.244 98.0137 21.244C100.39 21.244 102.274 21.988 103.666 23.476C105.058 24.94 105.754 26.992 105.754 29.632V40H100.066V30.928C100.066 29.368 99.6577 28.168 98.8417 27.328C98.0257 26.464 96.9217 26.032 95.5297 26.032C94.1137 26.032 92.9977 26.464 92.1817 27.328C91.3657 28.192 90.9577 29.392 90.9577 30.928V40H85.3057V30.928C85.3057 29.392 84.8977 28.192 84.0817 27.328C83.2657 26.464 82.1497 26.032 80.7337 26.032C79.3417 26.032 78.2377 26.464 77.4217 27.328C76.6057 28.168 76.1977 29.368 76.1977 30.928V40H70.5097ZM122.22 40.468C119.484 40.468 117.156 40.048 115.236 39.208C113.316 38.344 111.864 37.192 110.88 35.752C109.92 34.288 109.44 32.656 109.44 30.856C109.44 29.056 109.92 27.436 110.88 25.996C111.864 24.532 113.316 23.38 115.236 22.54C117.156 21.676 119.484 21.244 122.22 21.244C124.932 21.244 127.248 21.676 129.168 22.54C131.088 23.38 132.528 24.532 133.488 25.996C134.472 27.436 134.964 29.056 134.964 30.856C134.964 32.656 134.472 34.288 133.488 35.752C132.528 37.192 131.088 38.344 129.168 39.208C127.248 40.048 124.932 40.468 122.22 40.468ZM122.22 36.004C124.5 36.004 126.252 35.524 127.476 34.564C128.7 33.58 129.312 32.344 129.312 30.856C129.312 29.392 128.7 28.18 127.476 27.22C126.252 26.236 124.5 25.744 122.22 25.744C119.94 25.744 118.176 26.236 116.928 27.22C115.704 28.18 115.092 29.392 115.092 30.856C115.092 32.344 115.704 33.58 116.928 34.564C118.176 35.524 119.94 36.004 122.22 36.004ZM138.818 40V21.712H144.506L143.714 26.752H144.326C144.83 25 145.754 23.644 147.098 22.684C148.442 21.724 150.134 21.244 152.174 21.244C155.054 21.244 157.25 22.06 158.762 23.692C160.298 25.3 161.066 27.676 161.066 30.82V31.54H155.306V31.288C155.306 29.68 154.826 28.432 153.866 27.544C152.93 26.632 151.598 26.176 149.87 26.176C148.166 26.176 146.846 26.668 145.91 27.652C144.974 28.612 144.506 30.028 144.506 31.9V40H138.818ZM174.087 35.32H179.775V40H162.027V35.32H168.651V28.372C168.651 27.58 168.483 27.028 168.147 26.716C167.835 26.38 167.283 26.212 166.491 26.212C165.795 26.212 165.087 26.344 164.367 26.608V21.928C165.495 21.472 166.827 21.244 168.363 21.244C170.451 21.244 171.927 21.64 172.791 22.432C173.655 23.224 174.087 24.508 174.087 26.284V35.32ZM170.595 18.94C169.563 18.94 168.747 18.664 168.147 18.112C167.547 17.56 167.247 16.864 167.247 16.024C167.247 15.184 167.547 14.488 168.147 13.936C168.747 13.384 169.563 13.108 170.595 13.108C171.603 13.108 172.407 13.384 173.007 13.936C173.607 14.488 173.907 15.184 173.907 16.024C173.907 16.864 173.607 17.56 173.007 18.112C172.407 18.664 171.603 18.94 170.595 18.94ZM205.512 30.928C205.512 31.432 205.476 31.96 205.404 32.512H185.892C186.276 33.712 187.068 34.66 188.268 35.356C189.468 36.028 191.052 36.364 193.02 36.364C194.892 36.364 196.32 36.148 197.304 35.716C198.288 35.26 199.068 34.708 199.644 34.06H205.116C204.756 35.068 204.108 36.064 203.172 37.048C202.236 38.008 200.904 38.824 199.176 39.496C197.472 40.144 195.384 40.468 192.912 40.468C190.272 40.468 188.004 40.048 186.108 39.208C184.236 38.344 182.82 37.192 181.86 35.752C180.9 34.288 180.42 32.656 180.42 30.856C180.42 29.056 180.9 27.436 181.86 25.996C182.844 24.532 184.272 23.38 186.144 22.54C188.04 21.676 190.32 21.244 192.984 21.244C195.624 21.244 197.892 21.676 199.788 22.54C201.684 23.38 203.112 24.532 204.072 25.996C205.032 27.46 205.512 29.104 205.512 30.928ZM192.984 25.384C190.992 25.384 189.396 25.732 188.196 26.428C186.996 27.124 186.216 28.084 185.856 29.308H200.076C199.716 28.084 198.936 27.124 197.736 26.428C196.56 25.732 194.976 25.384 192.984 25.384ZM220.357 40.468C216.229 40.468 213.229 39.856 211.357 38.632C209.509 37.384 208.585 35.716 208.585 33.628V33.34H214.345V33.556C214.345 35.476 216.349 36.436 220.357 36.436C222.637 36.436 224.197 36.244 225.037 35.86C225.901 35.476 226.333 34.972 226.333 34.348C226.333 33.796 226.045 33.388 225.469 33.124C224.917 32.86 224.221 32.692 223.381 32.62C222.541 32.524 221.341 32.44 219.781 32.368C217.477 32.272 215.593 32.116 214.129 31.9C212.665 31.66 211.405 31.168 210.349 30.424C209.293 29.68 208.765 28.552 208.765 27.04C208.765 25.312 209.665 23.92 211.465 22.864C213.265 21.784 216.229 21.244 220.357 21.244C224.221 21.244 227.089 21.892 228.961 23.188C230.833 24.46 231.817 26.116 231.913 28.156H226.153C226.009 26.236 224.077 25.276 220.357 25.276C216.469 25.276 214.525 25.972 214.525 27.364C214.525 28.084 215.029 28.552 216.037 28.768C217.045 28.96 218.653 29.104 220.861 29.2C223.189 29.272 225.097 29.428 226.585 29.668C228.097 29.884 229.393 30.376 230.473 31.144C231.553 31.912 232.093 33.064 232.093 34.6C232.093 38.512 228.181 40.468 220.357 40.468Z" fill="white"/>
<path d="M2.88 78V52.8H12.852L18.936 66.372C19.488 67.98 19.764 69.036 19.764 69.54V69.864H20.34V69.54C20.34 69.036 20.616 67.98 21.168 66.372L27.252 52.8H37.26V78H31.068V63.744C31.068 62.136 31.128 60.816 31.248 59.784C31.392 58.752 31.608 57.696 31.896 56.616H31.284L23.616 73.68H16.488L8.82 56.616H8.208C8.496 57.696 8.7 58.752 8.82 59.784C8.964 60.816 9.036 62.136 9.036 63.744V78H2.88ZM50.3373 78.468C47.4333 78.468 45.2973 77.976 43.9293 76.992C42.5853 75.984 41.9133 74.628 41.9133 72.924C41.9133 71.244 42.5853 69.912 43.9293 68.928C45.2973 67.944 47.4333 67.452 50.3373 67.452C52.4253 67.452 54.1533 67.644 55.5213 68.028C56.8893 68.388 58.2453 68.928 59.5893 69.648V68.316C59.5893 66.876 59.0493 65.724 57.9693 64.86C56.8893 63.996 55.2933 63.564 53.1813 63.564C51.3333 63.564 49.9053 63.852 48.8973 64.428C47.9133 65.004 47.2893 65.724 47.0253 66.588H41.3733C41.6373 64.428 42.7413 62.664 44.6853 61.296C46.6533 59.928 49.5093 59.244 53.2533 59.244C57.1653 59.244 60.1173 60.084 62.1093 61.764C64.1253 63.42 65.1333 65.676 65.1333 68.532V72.42C65.1333 72.9 65.2413 73.248 65.4573 73.464C65.6733 73.68 65.9973 73.788 66.4293 73.788C66.7893 73.788 67.1253 73.74 67.4373 73.644V78.072C66.5733 78.336 65.7333 78.468 64.9173 78.468C63.4773 78.468 62.3733 78.144 61.6053 77.496C60.8373 76.824 60.4533 75.96 60.4533 74.904V74.76H59.8413V74.868C59.8413 75.468 59.4933 76.044 58.7973 76.596C58.1013 77.124 57.0333 77.568 55.5933 77.928C54.1773 78.288 52.4253 78.468 50.3373 78.468ZM52.4613 74.616C55.0773 74.616 57.4533 74.124 59.5893 73.14V72.132C58.4373 71.676 57.3093 71.328 56.2053 71.088C55.1253 70.848 53.8773 70.728 52.4613 70.728C50.6373 70.728 49.3773 70.896 48.6813 71.232C48.0093 71.568 47.6733 72.048 47.6733 72.672C47.6733 73.296 48.0093 73.776 48.6813 74.112C49.3533 74.448 50.6133 74.616 52.4613 74.616ZM82.5747 68.46L92.8347 78H85.3827L76.1667 68.964V78H70.4787V52.8H76.1667V68.064L85.1667 59.712H92.4747L82.5747 68.46ZM117.762 68.928C117.762 69.432 117.726 69.96 117.654 70.512H98.1425C98.5265 71.712 99.3185 72.66 100.518 73.356C101.718 74.028 103.302 74.364 105.27 74.364C107.142 74.364 108.57 74.148 109.554 73.716C110.538 73.26 111.318 72.708 111.894 72.06H117.366C117.006 73.068 116.358 74.064 115.422 75.048C114.486 76.008 113.154 76.824 111.426 77.496C109.722 78.144 107.634 78.468 105.162 78.468C102.522 78.468 100.254 78.048 98.3585 77.208C96.4865 76.344 95.0705 75.192 94.1105 73.752C93.1505 72.288 92.6705 70.656 92.6705 68.856C92.6705 67.056 93.1505 65.436 94.1105 63.996C95.0945 62.532 96.5225 61.38 98.3945 60.54C100.29 59.676 102.57 59.244 105.234 59.244C107.874 59.244 110.142 59.676 112.038 60.54C113.934 61.38 115.362 62.532 116.322 63.996C117.282 65.46 117.762 67.104 117.762 68.928ZM105.234 63.384C103.242 63.384 101.646 63.732 100.446 64.428C99.2465 65.124 98.4665 66.084 98.1065 67.308H112.326C111.966 66.084 111.186 65.124 109.986 64.428C108.81 63.732 107.226 63.384 105.234 63.384ZM121.627 78V59.712H127.315L126.523 64.752H127.135C127.639 63 128.563 61.644 129.907 60.684C131.251 59.724 132.943 59.244 134.983 59.244C137.863 59.244 140.059 60.06 141.571 61.692C143.107 63.3 143.875 65.676 143.875 68.82V69.54H138.115V69.288C138.115 67.68 137.635 66.432 136.675 65.544C135.739 64.632 134.407 64.176 132.679 64.176C130.975 64.176 129.655 64.668 128.719 65.652C127.783 66.612 127.315 68.028 127.315 69.9V78H121.627ZM158.517 78.468C154.389 78.468 151.389 77.856 149.517 76.632C147.669 75.384 146.745 73.716 146.745 71.628V71.34H152.505V71.556C152.505 73.476 154.509 74.436 158.517 74.436C160.797 74.436 162.357 74.244 163.197 73.86C164.061 73.476 164.493 72.972 164.493 72.348C164.493 71.796 164.205 71.388 163.629 71.124C163.077 70.86 162.381 70.692 161.541 70.62C160.701 70.524 159.501 70.44 157.941 70.368C155.637 70.272 153.753 70.116 152.289 69.9C150.825 69.66 149.565 69.168 148.509 68.424C147.453 67.68 146.925 66.552 146.925 65.04C146.925 63.312 147.825 61.92 149.625 60.864C151.425 59.784 154.389 59.244 158.517 59.244C162.381 59.244 165.249 59.892 167.121 61.188C168.993 62.46 169.977 64.116 170.073 66.156H164.313C164.169 64.236 162.237 63.276 158.517 63.276C154.629 63.276 152.685 63.972 152.685 65.364C152.685 66.084 153.189 66.552 154.197 66.768C155.205 66.96 156.813 67.104 159.021 67.2C161.349 67.272 163.257 67.428 164.745 67.668C166.257 67.884 167.553 68.376 168.633 69.144C169.713 69.912 170.253 71.064 170.253 72.6C170.253 76.512 166.341 78.468 158.517 78.468Z" fill="#F6B750"/>
</svg>
