<svg width="64" height="64" viewBox="0 0 64 64" fill="none" xmlns="http://www.w3.org/2000/svg">
<path d="M58.6667 37.3333V45.3333C58.6667 49.76 55.0933 53.3333 50.6667 53.3333H48C48 50.4 45.6 48 42.6667 48C39.7333 48 37.3333 50.4 37.3333 53.3333H26.6667C26.6667 50.4 24.2667 48 21.3333 48C18.4 48 16 50.4 16 53.3333H13.3333C8.90668 53.3333 5.33334 49.76 5.33334 45.3333V37.3333H34.6667C37.6 37.3333 40 34.9333 40 32V13.3333H44.9067C46.8267 13.3333 48.5867 14.3734 49.5467 16.0267L54.1066 24H50.6667C49.2 24 48 25.2 48 26.6667V34.6667C48 36.1333 49.2 37.3333 50.6667 37.3333H58.6667Z" fill="#89ABD1"/>
<path d="M21.3333 58.6667C24.2789 58.6667 26.6667 56.2789 26.6667 53.3333C26.6667 50.3878 24.2789 48 21.3333 48C18.3878 48 16 50.3878 16 53.3333C16 56.2789 18.3878 58.6667 21.3333 58.6667Z" fill="#272F44"/>
<path d="M42.6667 58.6667C45.6122 58.6667 48 56.2789 48 53.3333C48 50.3878 45.6122 48 42.6667 48C39.7212 48 37.3333 50.3878 37.3333 53.3333C37.3333 56.2789 39.7212 58.6667 42.6667 58.6667Z" fill="#272F44"/>
<path d="M58.6667 33.4134V37.3333H50.6667C49.2 37.3333 48 36.1333 48 34.6667V26.6667C48 25.2 49.2 24 50.6667 24H54.1066L57.9733 30.7733C58.4266 31.5733 58.6667 32.4801 58.6667 33.4134Z" fill="#272F44"/>
<path d="M37.3333 5.33334H16C10.8 5.33334 6.48003 9.06668 5.54669 14H18.6666C19.76 14 20.6666 14.9067 20.6666 16C20.6666 17.0933 19.76 18 18.6666 18H5.33331V22H13.3333C14.4266 22 15.3333 22.9067 15.3333 24C15.3333 25.0933 14.4266 26 13.3333 26H5.33331V30H7.99998C9.09331 30 9.99998 30.9067 9.99998 32C9.99998 33.0933 9.09331 34 7.99998 34H5.33331V37.3333H34.6666C37.6 37.3333 40 34.9333 40 32V8.00001C40 6.53334 38.8 5.33334 37.3333 5.33334Z" fill="#272F44"/>
<path d="M5.5467 14H2.66666C1.57332 14 0.666656 14.9067 0.666656 16C0.666656 17.0933 1.57332 18 2.66666 18H5.33332V16C5.33332 15.3067 5.41337 14.64 5.5467 14Z" fill="#272F44"/>
<path d="M2.66666 22C1.57332 22 0.666656 22.9067 0.666656 24C0.666656 25.0933 1.57332 26 2.66666 26H5.33332V22H2.66666Z" fill="#272F44"/>
<path d="M2.66666 30C1.57332 30 0.666656 30.9067 0.666656 32C0.666656 33.0933 1.57332 34 2.66666 34H5.33332V30H2.66666Z" fill="#272F44"/>
</svg>
