<svg width="65" height="64" viewBox="0 0 65 64" fill="none" xmlns="http://www.w3.org/2000/svg">
<path d="M43.8333 60C46.4106 60 48.5 57.9107 48.5 55.3333C48.5 52.756 46.4106 50.6667 43.8333 50.6667C41.256 50.6667 39.1666 52.756 39.1666 55.3333C39.1666 57.9107 41.256 60 43.8333 60Z" fill="#272F44"/>
<path d="M22.5 60C25.0774 60 27.1667 57.9107 27.1667 55.3333C27.1667 52.756 25.0774 50.6667 22.5 50.6667C19.9227 50.6667 17.8334 52.756 17.8334 55.3333C17.8334 57.9107 19.9227 60 22.5 60Z" fill="#272F44"/>
<path d="M13.4067 10.5067L12.8734 17.04C12.7667 18.2933 13.7534 19.3333 15.0067 19.3333H55.8334C56.9534 19.3333 57.8867 18.48 57.9667 17.36C58.3134 12.64 54.7134 8.80002 49.9934 8.80002H17.2734C17.0067 7.62669 16.4734 6.50667 15.6467 5.57333C14.34 4.16 12.4734 3.33334 10.5534 3.33334H5.83337C4.74004 3.33334 3.83337 4.24001 3.83337 5.33334C3.83337 6.42668 4.74004 7.33334 5.83337 7.33334H10.4734C11.3001 7.33334 12.0734 7.68003 12.6334 8.26669C13.1934 8.88003 13.46 9.68002 13.4067 10.5067Z" fill="#89ABD1"/>
<path d="M55.1933 23.3333H14.2867C13.1667 23.3333 12.26 24.1867 12.1533 25.28L11.1933 36.88C10.82 41.4133 14.3933 45.3333 18.9533 45.3333H48.6066C52.6066 45.3333 56.1267 42.0534 56.42 38.0534L57.3 25.6C57.4067 24.3734 56.4466 23.3333 55.1933 23.3333Z" fill="#272F44"/>
</svg>
